<svg width="103" height="108" fill="none" xmlns="http://www.w3.org/2000/svg"><g filter="url(#a)"><rect x="29" y="25" width="50" height="50" rx="8" fill="#fff" shape-rendering="crispEdges"/><path fill-rule="evenodd" clip-rule="evenodd" d="m60.03 50.83 1 1.66c.39.64.46 1.4.2 2.09s-.8 1.22-1.5 1.45c-1.94.65-3.98.97-6.02.97-2.04 0-4.08-.32-6.02-.98-.74-.25-1.31-.77-1.55-1.44-.25-.68-.16-1.42.24-2.09l1.01-1.67c.21-.36.4-1.06.4-1.47v-2.53c0-2.32 1.35-4.33 3.3-5.3A2.96 2.96 0 0 1 53.68 40c1.1 0 2.06.57 2.58 1.49a5.91 5.91 0 0 1 3.37 5.33v2.53c0 .41.19 1.11.4 1.48ZM53.69 60c1.3 0 2.41-.83 2.83-1.99l-.49.06c-.136.02-.275.031-.416.043-.068.005-.136.01-.204.017-.56.05-1.13.08-1.7.08-.58 0-1.16-.03-1.73-.08-.24-.02-.48-.05-.71-.08-.066-.01-.13-.017-.192-.024a5.121 5.121 0 0 1-.209-.026c.14.41.38.81.7 1.11.55.57 1.33.89 2.12.89Z" fill="#212121"/><g filter="url(#b)"><circle cx="61" cy="43" r="5" fill="#D03"/></g></g><defs><filter id="a" x="0" y="0" width="108" height="108" filterUnits="userSpaceOnUse" color-interpolation-filters="sRGB"><feFlood flood-opacity="0" result="BackgroundImageFix"/><feColorMatrix in="SourceAlpha" values="0 0 0 0 0 0 0 0 0 0 0 0 0 0 0 0 0 0 127 0" result="hardAlpha"/><feOffset dy="4"/><feGaussianBlur stdDeviation="14.5"/><feComposite in2="hardAlpha" operator="out"/><feColorMatrix values="0 0 0 0 0.898039 0 0 0 0 0.898039 0 0 0 0 0.898039 0 0 0 1 0"/><feBlend in2="BackgroundImageFix" result="effect1_dropShadow_3_1860"/><feBlend in="SourceGraphic" in2="effect1_dropShadow_3_1860" result="shape"/></filter><filter id="b" x="49" y="32" width="26" height="26" filterUnits="userSpaceOnUse" color-interpolation-filters="sRGB"><feFlood flood-opacity="0" result="BackgroundImageFix"/><feColorMatrix in="SourceAlpha" values="0 0 0 0 0 0 0 0 0 0 0 0 0 0 0 0 0 0 127 0" result="hardAlpha"/><feOffset dx="1" dy="2"/><feGaussianBlur stdDeviation="4"/><feComposite in2="hardAlpha" operator="out"/><feColorMatrix values="0 0 0 0 0.866667 0 0 0 0 0 0 0 0 0 0.2 0 0 0 0.3 0"/><feBlend in2="BackgroundImageFix" result="effect1_dropShadow_3_1860"/><feBlend in="SourceGraphic" in2="effect1_dropShadow_3_1860" result="shape"/></filter></defs></svg>